<svg width="900" height="900" viewBox="0 0 900 900" fill="none" xmlns="http://www.w3.org/2000/svg">
<rect width="900" height="900" fill="#F9F9F9"/>
<path d="M129.881 494.206C126.771 494.206 123.896 493.452 121.257 491.944C118.713 490.436 116.686 488.41 115.178 485.865C113.671 483.226 112.917 480.352 112.917 477.242V409.385C112.917 406.275 113.671 403.448 115.178 400.903C116.686 398.265 118.713 396.191 121.257 394.683C123.896 393.175 126.771 392.421 129.881 392.421H214.418V403.872H129.881C128.373 403.872 127.053 404.438 125.922 405.569C124.886 406.605 124.367 407.878 124.367 409.385V477.242C124.367 478.75 124.886 480.069 125.922 481.2C127.053 482.237 128.373 482.755 129.881 482.755H214.418V494.206H129.881ZM248.384 494.206C245.274 494.206 242.399 493.452 239.76 491.944C237.216 490.342 235.142 488.268 233.54 485.724C232.032 483.085 231.278 480.21 231.278 477.1V429.318C231.278 426.208 232.032 423.381 233.54 420.836C235.142 418.197 237.216 416.124 239.76 414.616C242.399 413.014 245.274 412.213 248.384 412.213H297.58C300.784 412.213 303.658 413.014 306.203 414.616C308.842 416.124 310.915 418.197 312.423 420.836C314.025 423.381 314.826 426.208 314.826 429.318V477.1C314.826 480.21 314.025 483.085 312.423 485.724C310.915 488.268 308.842 490.342 306.203 491.944C303.658 493.452 300.784 494.206 297.58 494.206H248.384ZM248.384 482.614H297.58C299.087 482.614 300.36 482.095 301.396 481.059C302.527 479.928 303.093 478.608 303.093 477.1V429.318C303.093 427.81 302.527 426.538 301.396 425.501C300.36 424.37 299.087 423.805 297.58 423.805H248.384C246.876 423.805 245.556 424.37 244.426 425.501C243.389 426.538 242.87 427.81 242.87 429.318V477.1C242.87 478.608 243.389 479.928 244.426 481.059C245.556 482.095 246.876 482.614 248.384 482.614ZM330.339 494.206V412.213H396.782C399.892 412.213 402.719 413.014 405.264 414.616C407.903 416.124 409.976 418.197 411.484 420.836C413.086 423.381 413.887 426.208 413.887 429.318V494.206H402.295V429.318C402.295 427.81 401.73 426.538 400.599 425.501C399.562 424.37 398.29 423.805 396.782 423.805H347.586C346.078 423.805 344.759 424.37 343.628 425.501C342.497 426.538 341.931 427.81 341.931 429.318V494.206H330.339ZM448.563 494.206C445.359 494.206 442.437 493.452 439.798 491.944C437.254 490.342 435.227 488.268 433.719 485.724C432.211 483.085 431.457 480.21 431.457 477.1V385.353H443.05V412.213H478.533V423.805H443.05V477.1C443.05 478.608 443.568 479.928 444.605 481.059C445.736 482.095 447.055 482.614 448.563 482.614H478.533V494.206H448.563ZM492.126 494.206V429.318C492.126 426.208 492.88 423.381 494.388 420.836C495.99 418.197 498.063 416.124 500.608 414.616C503.247 413.014 506.121 412.213 509.231 412.213H555.317V423.805H509.231C507.724 423.805 506.404 424.37 505.273 425.501C504.237 426.538 503.718 427.81 503.718 429.318V494.206H492.126ZM567.294 494.206V412.213H578.886V494.206H567.294ZM567.294 396.945V385.353H578.886V396.945H567.294ZM599.809 494.206V385.353H611.401V412.213H666.252C669.362 412.213 672.189 413.014 674.734 414.616C677.373 416.124 679.446 418.197 680.954 420.836C682.556 423.381 683.357 426.208 683.357 429.318V477.1C683.357 480.21 682.556 483.085 680.954 485.724C679.446 488.268 677.373 490.342 674.734 491.944C672.189 493.452 669.362 494.206 666.252 494.206H599.809ZM617.056 482.614H666.252C667.76 482.614 669.032 482.095 670.069 481.059C671.2 479.928 671.765 478.608 671.765 477.1V429.318C671.765 427.81 671.2 426.538 670.069 425.501C669.032 424.37 667.76 423.805 666.252 423.805H617.056C615.548 423.805 614.229 424.37 613.098 425.501C611.967 426.538 611.401 427.81 611.401 429.318V477.1C611.401 478.608 611.967 479.928 613.098 481.059C614.229 482.095 615.548 482.614 617.056 482.614ZM713.609 494.206C710.498 494.206 707.624 493.452 704.985 491.944C702.441 490.342 700.367 488.268 698.765 485.724C697.257 483.085 696.503 480.21 696.503 477.1V429.318C696.503 426.208 697.257 423.381 698.765 420.836C700.367 418.197 702.441 416.124 704.985 414.616C707.624 413.014 710.498 412.213 713.609 412.213H762.804C766.009 412.213 768.883 413.014 771.428 414.616C774.067 416.124 776.14 418.197 777.648 420.836C779.25 423.381 780.051 426.208 780.051 429.318V477.1C780.051 480.21 779.25 483.085 777.648 485.724C776.14 488.268 774.067 490.342 771.428 491.944C768.883 493.452 766.009 494.206 762.804 494.206H713.609ZM713.609 482.614H762.804C764.312 482.614 765.585 482.095 766.621 481.059C767.752 479.928 768.318 478.608 768.318 477.1V429.318C768.318 427.81 767.752 426.538 766.621 425.501C765.585 424.37 764.312 423.805 762.804 423.805H713.609C712.101 423.805 710.781 424.37 709.65 425.501C708.614 426.538 708.095 427.81 708.095 429.318V477.1C708.095 478.608 708.614 479.928 709.65 481.059C710.781 482.095 712.101 482.614 713.609 482.614Z" fill="#34495E"/>
<path d="M785.082 358.292C785.082 378.94 766.403 395.678 743.361 395.678C720.32 395.678 701.641 378.94 701.641 358.292C701.641 315.411 777.272 290.231 777.272 290.231C777.272 290.231 785.082 337.645 785.082 358.292Z" fill="#4FC497"/>
<path d="M787.905 358.292C787.905 337.696 780.386 291.805 780.065 289.862C779.941 289.107 779.443 288.442 778.71 288.054C777.977 287.665 777.088 287.594 776.289 287.859C775.504 288.121 756.835 294.398 737.857 306.097C726.629 313.017 717.663 320.4 711.207 328.04C702.986 337.769 698.818 347.947 698.818 358.292C698.818 377.638 714.256 393.811 734.671 397.443C735.664 403.082 737.033 408.3 738.75 412.972C739.141 414.036 740.245 414.711 741.431 414.711C741.724 414.711 742.022 414.67 742.315 414.583C743.796 414.146 744.601 412.716 744.113 411.389C742.641 407.381 741.436 402.929 740.519 398.125C741.459 398.178 742.406 398.208 743.361 398.208C767.923 398.208 787.905 380.302 787.905 358.292ZM704.464 358.292C704.464 337.268 724.314 320.601 740.966 310.321C751.889 303.578 762.912 298.622 770.11 295.692C764.137 303.421 752.423 319.567 745.44 335.713C744.877 337.016 745.599 338.482 747.053 338.987C747.388 339.103 747.733 339.158 748.072 339.158C749.204 339.158 750.272 338.544 750.706 337.542C757.726 321.309 770.071 304.598 775.574 297.533C777.717 311.448 782.258 342.76 782.258 358.292C782.258 377.511 764.809 393.148 743.361 393.148C721.913 393.148 704.464 377.512 704.464 358.292Z" fill="#34495E"/>
<path d="M740.02 357.372C740.056 355.276 740.338 352.972 740.86 350.522C741.152 349.15 740.147 347.825 738.616 347.563C737.084 347.3 735.606 348.201 735.313 349.574C734.731 352.31 734.415 354.908 734.374 357.295C734.351 358.692 735.595 359.842 737.155 359.863C737.169 359.863 737.184 359.864 737.198 359.864C738.737 359.864 739.997 358.756 740.02 357.372Z" fill="#333333"/>
<path d="M118.954 540.049V525.735H126.924C127.371 525.735 127.778 525.847 128.143 526.071C128.52 526.295 128.815 526.589 129.027 526.954C129.25 527.32 129.362 527.726 129.362 528.174V533.546C129.362 533.993 129.25 534.4 129.027 534.765C128.815 535.13 128.52 535.425 128.143 535.649C127.778 535.872 127.371 535.984 126.924 535.984H121.269V540.049H118.954ZM121.481 533.669H126.835C126.894 533.669 126.941 533.652 126.977 533.616C127.024 533.569 127.047 533.516 127.047 533.457V528.262C127.047 528.203 127.024 528.156 126.977 528.121C126.941 528.074 126.894 528.05 126.835 528.05H121.481C121.422 528.05 121.369 528.074 121.322 528.121C121.287 528.156 121.269 528.203 121.269 528.262V533.457C121.269 533.516 121.287 533.569 121.322 533.616C121.369 533.652 121.422 533.669 121.481 533.669ZM133.428 535.984C132.98 535.984 132.574 535.872 132.208 535.649C131.843 535.425 131.549 535.13 131.325 534.765C131.101 534.4 130.989 533.993 130.989 533.546V528.174C130.989 527.726 131.101 527.32 131.325 526.954C131.549 526.589 131.843 526.295 132.208 526.071C132.574 525.847 132.98 525.735 133.428 525.735H138.959C139.406 525.735 139.813 525.847 140.178 526.071C140.555 526.295 140.85 526.589 141.062 526.954C141.285 527.32 141.397 527.726 141.397 528.174V533.546C141.397 533.993 141.285 534.4 141.062 534.765C140.85 535.13 140.561 535.425 140.196 535.649C139.831 535.872 139.418 535.984 138.959 535.984H133.428ZM133.516 533.669H138.87C138.929 533.669 138.976 533.652 139.012 533.616C139.059 533.569 139.082 533.516 139.082 533.457V528.262C139.082 528.203 139.059 528.156 139.012 528.121C138.976 528.074 138.929 528.05 138.87 528.05H133.516C133.457 528.05 133.404 528.074 133.357 528.121C133.322 528.156 133.304 528.203 133.304 528.262V533.457C133.304 533.516 133.322 533.569 133.357 533.616C133.404 533.652 133.457 533.669 133.516 533.669ZM146.271 535.984L142.242 525.735H144.699L147.19 531.779L149.805 525.735H152.209L155.001 531.814L157.316 525.735H159.772L155.92 535.984H154.117L151.025 529.146L148.074 535.984H146.271ZM163.454 535.984C163.006 535.984 162.6 535.872 162.235 535.649C161.869 535.425 161.575 535.13 161.351 534.765C161.127 534.4 161.015 533.993 161.015 533.546V528.174C161.015 527.726 161.127 527.32 161.351 526.954C161.575 526.589 161.869 526.295 162.235 526.071C162.6 525.847 163.006 525.735 163.454 525.735H168.985C169.432 525.735 169.839 525.847 170.204 526.071C170.581 526.295 170.876 526.589 171.088 526.954C171.311 527.32 171.423 527.726 171.423 528.174V532.026H163.33V533.457C163.33 533.516 163.348 533.569 163.383 533.616C163.43 533.652 163.483 533.669 163.542 533.669H171.423V535.984H163.454ZM163.33 529.941H169.108V528.262C169.108 528.203 169.085 528.156 169.038 528.121C169.002 528.074 168.955 528.05 168.896 528.05H163.542C163.483 528.05 163.43 528.074 163.383 528.121C163.348 528.156 163.33 528.203 163.33 528.262V529.941ZM173.518 535.984V528.174C173.518 527.726 173.63 527.32 173.854 526.954C174.077 526.589 174.372 526.295 174.737 526.071C175.114 525.847 175.52 525.735 175.956 525.735H181.646V528.05H176.045C175.986 528.05 175.933 528.074 175.886 528.121C175.85 528.156 175.833 528.203 175.833 528.262V535.984H173.518ZM185.645 535.984C185.198 535.984 184.791 535.872 184.426 535.649C184.061 535.425 183.766 535.13 183.542 534.765C183.319 534.4 183.207 533.993 183.207 533.546V528.174C183.207 527.726 183.319 527.32 183.542 526.954C183.766 526.589 184.061 526.295 184.426 526.071C184.791 525.847 185.198 525.735 185.645 525.735H191.176C191.624 525.735 192.03 525.847 192.396 526.071C192.773 526.295 193.067 526.589 193.279 526.954C193.503 527.32 193.615 527.726 193.615 528.174V532.026H185.522V533.457C185.522 533.516 185.539 533.569 185.575 533.616C185.622 533.652 185.675 533.669 185.734 533.669H193.615V535.984H185.645ZM185.522 529.941H191.3V528.262C191.3 528.203 191.276 528.156 191.229 528.121C191.194 528.074 191.147 528.05 191.088 528.05H185.734C185.675 528.05 185.622 528.074 185.575 528.121C185.539 528.156 185.522 528.203 185.522 528.262V529.941ZM197.739 535.984C197.279 535.984 196.867 535.872 196.502 535.649C196.137 535.425 195.842 535.13 195.618 534.765C195.406 534.4 195.3 533.993 195.3 533.546V528.174C195.3 527.726 195.406 527.32 195.618 526.954C195.842 526.589 196.137 526.295 196.502 526.071C196.867 525.847 197.279 525.735 197.739 525.735H203.411V522.378H205.726V535.984H197.739ZM197.845 533.669H203.199C203.258 533.669 203.305 533.652 203.341 533.616C203.388 533.569 203.411 533.516 203.411 533.457V528.262C203.411 528.203 203.388 528.156 203.341 528.121C203.305 528.074 203.258 528.05 203.199 528.05H197.845C197.786 528.05 197.733 528.074 197.686 528.121C197.651 528.156 197.633 528.203 197.633 528.262V533.457C197.633 533.516 197.651 533.569 197.686 533.616C197.733 533.652 197.786 533.669 197.845 533.669ZM213.743 535.984V522.378H216.058V525.735H221.712C222.16 525.735 222.566 525.847 222.932 526.071C223.308 526.295 223.603 526.589 223.815 526.954C224.039 527.32 224.151 527.726 224.151 528.174V533.546C224.151 533.993 224.039 534.4 223.815 534.765C223.603 535.13 223.308 535.425 222.932 535.649C222.566 535.872 222.16 535.984 221.712 535.984H213.743ZM216.27 533.669H221.624C221.683 533.669 221.73 533.652 221.765 533.616C221.812 533.569 221.836 533.516 221.836 533.457V528.262C221.836 528.203 221.812 528.156 221.765 528.121C221.73 528.074 221.683 528.05 221.624 528.05H216.27C216.211 528.05 216.158 528.074 216.111 528.121C216.075 528.156 216.058 528.203 216.058 528.262V533.457C216.058 533.516 216.075 533.569 216.111 533.616C216.158 533.652 216.211 533.669 216.27 533.669ZM227.384 539.783V537.451H233.552C233.61 537.451 233.658 537.427 233.693 537.38C233.74 537.345 233.764 537.298 233.764 537.239V535.984H228.109C227.673 535.984 227.267 535.872 226.89 535.649C226.524 535.425 226.23 535.13 226.006 534.765C225.782 534.4 225.67 533.993 225.67 533.546V525.77H227.985V533.457C227.985 533.516 228.003 533.569 228.038 533.616C228.085 533.652 228.138 533.669 228.197 533.669H233.552C233.61 533.669 233.658 533.652 233.693 533.616C233.74 533.569 233.764 533.516 233.764 533.457V525.77H236.079V537.345C236.079 537.793 235.972 538.199 235.76 538.564C235.548 538.941 235.254 539.236 234.877 539.448C234.512 539.672 234.105 539.783 233.658 539.783H227.384Z" fill="#34495E"/>
<path d="M261.958 536.218V532.817L266.473 531.703V532.105H269.133V536.218H261.958ZM248.506 536.218C247.723 536.218 247.001 536.023 246.342 535.631C245.703 535.239 245.187 534.724 244.795 534.085C244.404 533.425 244.208 532.703 244.208 531.92V518.251C244.208 517.468 244.404 516.757 244.795 516.118C245.187 515.458 245.703 514.932 246.342 514.541C247.001 514.149 247.723 513.953 248.506 513.953H262.175C262.958 513.953 263.669 514.149 264.308 514.541C264.968 514.932 265.494 515.458 265.886 516.118C266.277 516.757 266.473 517.468 266.473 518.251V531.92C266.473 532.703 266.277 533.425 265.886 534.085C265.494 534.724 264.968 535.239 264.308 535.631C263.669 536.023 262.958 536.218 262.175 536.218H248.506ZM248.661 532.105H261.958C262.061 532.105 262.154 532.075 262.237 532.013C262.319 531.93 262.36 531.837 262.36 531.734V518.437C262.36 518.334 262.319 518.251 262.237 518.19C262.154 518.107 262.061 518.066 261.958 518.066H248.661C248.558 518.066 248.465 518.107 248.383 518.19C248.321 518.251 248.29 518.334 248.29 518.437V531.734C248.29 531.837 248.321 531.93 248.383 532.013C248.465 532.075 248.558 532.105 248.661 532.105ZM272.095 536.218V518.282H276.146V536.218H272.095ZM272.095 516.489V512.407H276.146V516.489H272.095ZM280.203 536.218V522.55C280.203 521.767 280.399 521.055 280.79 520.416C281.182 519.777 281.697 519.262 282.336 518.87C282.996 518.478 283.707 518.282 284.47 518.282H294.428V522.333H284.625C284.522 522.333 284.429 522.375 284.347 522.457C284.285 522.519 284.254 522.601 284.254 522.705V536.218H280.203ZM306.095 536.218L296.231 518.282H300.9L307.982 531.301L315.032 518.282H319.702L309.806 536.218H306.095ZM325.539 536.218C324.756 536.218 324.045 536.023 323.406 535.631C322.766 535.239 322.251 534.724 321.859 534.085C321.468 533.445 321.272 532.734 321.272 531.951V522.55C321.272 521.767 321.468 521.055 321.859 520.416C322.251 519.777 322.766 519.262 323.406 518.87C324.045 518.478 324.756 518.282 325.539 518.282H335.219C336.002 518.282 336.713 518.478 337.352 518.87C338.012 519.262 338.527 519.777 338.899 520.416C339.29 521.055 339.486 521.767 339.486 522.55V529.291H325.323V531.796C325.323 531.899 325.354 531.992 325.416 532.075C325.498 532.136 325.591 532.167 325.694 532.167H339.486V536.218H325.539ZM325.323 525.642H335.435V522.705C335.435 522.601 335.394 522.519 335.311 522.457C335.249 522.375 335.167 522.333 335.064 522.333H325.694C325.591 522.333 325.498 522.375 325.416 522.457C325.354 522.519 325.323 522.601 325.323 522.705V525.642ZM342.543 536.218V535.136L349.13 527.096L342.543 519.365V518.282H346.934L351.758 523.972L356.582 518.282H360.974V519.365L354.387 527.096L360.974 535.136V536.218H356.613L351.758 530.281L346.934 536.218H342.543Z" fill="#34495E"/>
<path d="M358.252 502.538H364.017V504.305H362.272V510.269H360.019V504.305H358.252V502.538ZM365.254 502.538H368.236L370.622 508.922L369.583 508.944L372.212 502.538H374.995V510.269H372.919V503.907L373.515 503.841L370.842 510.269H369.296L366.734 503.841L367.264 503.907V510.269H365.254V502.538Z" fill="#2980B9"/>
</svg>
